<svg xmlns="http://www.w3.org/2000/svg" width="1012" height="300" viewBox="0 0 1012 300">
  <style>
    .b {
      fill: #0d1117
    }

    .l {
      fill: #fff
    }

    @media (prefers-color-scheme: light) {
      .b {
        fill: #fff
      }

      .l {
        fill: #0d1117
      }
    }
  </style>
  <rect class="b" x="0" y="0" width="1012" height="300" />
  <path
    d="M434.648 176L424.762 143.273H428.767L436.523 170.268H436.8L444.534 143.273H448.561L456.232 170.205H456.53L464.286 143.273H468.292L458.405 176H454.485L446.729 149.175H446.324L438.569 176H434.648ZM491.254 143.273V146.575H475.636V143.273H491.254ZM480.516 135.432H484.33V167.456C484.33 168.82 484.564 169.892 485.033 170.673C485.502 171.44 486.112 171.987 486.865 172.314C487.618 172.626 488.421 172.783 489.273 172.783C489.77 172.783 490.196 172.754 490.551 172.697C490.906 172.626 491.219 172.555 491.489 172.484L492.298 175.915C491.929 176.057 491.475 176.185 490.935 176.298C490.395 176.426 489.727 176.49 488.932 176.49C487.54 176.49 486.198 176.185 484.905 175.574C483.627 174.963 482.575 174.054 481.752 172.847C480.928 171.639 480.516 170.141 480.516 168.351V135.432Z"
    fill="#3B82F6" />
  <path
    d="M511.708 176.746C509.734 176.746 507.93 176.362 506.296 175.595C504.663 174.814 503.363 173.692 502.397 172.229C501.431 170.751 500.948 168.962 500.948 166.859C500.948 165.24 501.254 163.876 501.865 162.768C502.475 161.661 503.342 160.751 504.464 160.041C505.586 159.331 506.914 158.77 508.448 158.358C509.982 157.946 511.673 157.626 513.519 157.399C515.352 157.172 516.9 156.973 518.164 156.803C519.443 156.632 520.416 156.362 521.083 155.993C521.751 155.624 522.085 155.027 522.085 154.203V153.436C522.085 151.206 521.417 149.452 520.082 148.173C518.761 146.881 516.857 146.234 514.372 146.234C512.014 146.234 510.089 146.753 508.597 147.79C507.12 148.827 506.083 150.048 505.487 151.455L501.886 150.155C502.624 148.365 503.647 146.937 504.954 145.872C506.261 144.793 507.724 144.018 509.343 143.55C510.963 143.067 512.603 142.825 514.265 142.825C515.515 142.825 516.815 142.989 518.164 143.315C519.528 143.642 520.792 144.21 521.957 145.02C523.122 145.815 524.066 146.93 524.791 148.365C525.515 149.786 525.877 151.589 525.877 153.777V176H522.085V170.822H521.85C521.396 171.788 520.721 172.726 519.826 173.635C518.931 174.544 517.809 175.29 516.46 175.872C515.11 176.455 513.526 176.746 511.708 176.746ZM512.22 173.273C514.237 173.273 515.984 172.825 517.461 171.93C518.938 171.036 520.075 169.849 520.87 168.372C521.68 166.881 522.085 165.24 522.085 163.45V158.72C521.801 158.99 521.325 159.232 520.657 159.445C520.004 159.658 519.244 159.849 518.377 160.02C517.525 160.176 516.673 160.311 515.82 160.425C514.968 160.538 514.201 160.638 513.519 160.723C511.673 160.95 510.096 161.305 508.789 161.788C507.482 162.271 506.481 162.939 505.785 163.791C505.089 164.629 504.741 165.709 504.741 167.03C504.741 169.018 505.451 170.56 506.872 171.653C508.292 172.733 510.075 173.273 512.22 173.273ZM560.655 150.453L557.182 151.433C556.841 150.453 556.358 149.565 555.733 148.77C555.108 147.974 554.291 147.342 553.283 146.874C552.288 146.405 551.052 146.17 549.575 146.17C547.359 146.17 545.541 146.696 544.121 147.747C542.7 148.798 541.99 150.155 541.99 151.817C541.99 153.223 542.473 154.366 543.439 155.247C544.419 156.114 545.925 156.803 547.956 157.314L552.899 158.528C555.641 159.196 557.693 160.254 559.057 161.703C560.435 163.152 561.123 164.97 561.123 167.158C561.123 169.004 560.612 170.645 559.589 172.08C558.567 173.514 557.139 174.643 555.307 175.467C553.489 176.277 551.379 176.682 548.979 176.682C545.783 176.682 543.148 175.964 541.074 174.53C539 173.081 537.672 170.993 537.089 168.266L540.733 167.371C541.202 169.317 542.118 170.787 543.481 171.781C544.859 172.776 546.67 173.273 548.915 173.273C551.429 173.273 553.439 172.712 554.944 171.589C556.45 170.453 557.203 169.033 557.203 167.328C557.203 166.007 556.763 164.899 555.882 164.004C555.001 163.095 553.666 162.428 551.876 162.001L546.528 160.723C543.687 160.041 541.585 158.962 540.221 157.484C538.858 156.007 538.176 154.175 538.176 151.987C538.176 150.183 538.666 148.599 539.646 147.236C540.626 145.858 541.976 144.778 543.694 143.997C545.413 143.216 547.373 142.825 549.575 142.825C552.572 142.825 554.966 143.507 556.756 144.871C558.56 146.22 559.859 148.081 560.655 150.453ZM585.018 143.273V146.575H569.401V143.273H585.018ZM574.28 135.432H578.094V167.456C578.094 168.82 578.328 169.892 578.797 170.673C579.266 171.44 579.876 171.987 580.629 172.314C581.382 172.626 582.185 172.783 583.037 172.783C583.534 172.783 583.96 172.754 584.315 172.697C584.67 172.626 584.983 172.555 585.253 172.484L586.062 175.915C585.693 176.057 585.239 176.185 584.699 176.298C584.159 176.426 583.491 176.49 582.696 176.49C581.304 176.49 579.962 176.185 578.669 175.574C577.391 174.963 576.339 174.054 575.516 172.847C574.692 171.639 574.28 170.141 574.28 168.351V135.432Z"
    class="l" />

</svg>